<svg width="25" height="25" viewBox="0 0 25 25" fill="none" xmlns="http://www.w3.org/2000/svg">
<g clip-path="url(#clip0_46_5)">
<path d="M4.78845 2.24536H20.7885C21.0537 2.24536 21.308 2.35072 21.4956 2.53825C21.6831 2.72579 21.7885 2.98014 21.7885 3.24536V22.5214C21.7885 22.6048 21.7677 22.6869 21.728 22.7603C21.6882 22.8336 21.6307 22.8958 21.5607 22.9413C21.4907 22.9867 21.4105 23.0139 21.3273 23.0204C21.2441 23.0268 21.1606 23.0124 21.0845 22.9784L12.7885 19.2754L4.49245 22.9774C4.41635 23.0114 4.33296 23.0258 4.24986 23.0194C4.16676 23.0129 4.08659 22.9858 4.01663 22.9405C3.94667 22.8952 3.88915 22.8331 3.8493 22.7599C3.80945 22.6867 3.78853 22.6047 3.78845 22.5214V3.24536C3.78845 2.98014 3.89381 2.72579 4.08135 2.53825C4.26888 2.35072 4.52324 2.24536 4.78845 2.24536V2.24536ZM12.7885 13.7454L15.7275 15.2904L15.1665 12.0184L17.5435 9.70036L14.2575 9.22236L12.7885 6.24536L11.3185 9.22236L8.03345 9.70036L10.4105 12.0184L9.85045 15.2904L12.7885 13.7454Z" fill="#666"/>
</g>
<defs>
<clipPath id="clip0_46_5">
<rect width="24" height="24" fill="white" transform="translate(0.788452 0.245361)"/>
</clipPath>
</defs>
</svg>
