<svg width="42" height="42" viewBox="0 0 42 42" fill="none" xmlns="http://www.w3.org/2000/svg">
<mask id="mask0_1_3282" style="mask-type:alpha" maskUnits="userSpaceOnUse" x="0" y="0" width="42" height="42">
<path d="M41.4839 0.397949H0.193573V41.6883H41.4839V0.397949Z" fill="white"/>
</mask>
<g mask="url(#mask0_1_3282)">
<path d="M1.67442 26.3668C-0.0804184 28.999 -0.28687 32.3711 1.12388 35.1926C2.51743 38.0313 5.33894 39.9066 8.48732 40.0958C13.3733 40.4055 17.5712 36.6894 17.8809 31.8206C18.1905 26.9345 14.4744 22.7367 9.6056 22.427C6.44001 22.2378 3.42926 23.7345 1.67442 26.3668V26.3668ZM28.4899 6.39007C26.0469 2.15781 20.6276 0.712649 16.3953 3.15566C12.163 5.59867 10.7179 11.018 13.1609 15.2503L24.963 35.689C27.4061 39.9213 32.8254 41.3836 37.0577 38.9234C39.0878 37.7535 40.5845 35.8266 41.1867 33.5557C41.7888 31.2847 41.4792 28.8761 40.2921 26.8288L28.4899 6.39007Z" fill="#111"/>
</g>
</svg>
