<svg width="42" height="42" viewBox="0 0 42 42" fill="none" xmlns="http://www.w3.org/2000/svg">
<mask id="mask0_1_3367" style="mask-type:alpha" maskUnits="userSpaceOnUse" x="0" y="0" width="42" height="42">
<path d="M41.5806 0.494751H0.290283V41.7851H41.5806V0.494751Z" fill="white"/>
</mask>
<g mask="url(#mask0_1_3367)">
<path d="M16.1641 17.1553C16.1813 17.2413 16.1813 17.2585 16.1641 17.1553V17.1553ZM29.4961 11.3925C29.4961 11.4613 29.4617 11.513 29.4273 11.5646C29.3757 11.6162 29.324 11.6334 29.2552 11.6334C29.1864 11.6334 29.1348 11.6162 29.0832 11.5646C29.0488 11.513 29.0144 11.4613 29.0144 11.3925C29.0144 11.2721 29.1176 11.1689 29.2552 11.1689C29.3929 11.1689 29.4961 11.2721 29.4961 11.3925ZM28.5068 11.4321C28.5068 11.5009 28.4724 11.5525 28.438 11.6041C28.3864 11.6557 28.3348 11.673 28.266 11.673C28.1972 11.673 28.1455 11.6557 28.0939 11.6041C28.0595 11.5525 28.0251 11.5009 28.0251 11.4321C28.0251 11.3117 28.1283 11.2084 28.266 11.2084C28.4036 11.2084 28.5068 11.3117 28.5068 11.4321ZM29.1692 10.1918C29.1692 10.1918 29.2208 9.55522 29.7369 9.43479C29.7369 9.43479 30.5111 9.19393 30.838 9.88211C30.838 9.88211 30.9585 10.1574 30.8552 10.2434C30.8552 10.2434 30.6144 10.3294 30.5455 9.91652C30.5455 9.91652 30.3563 9.53802 29.9606 9.60684C29.9606 9.60684 29.6337 9.64125 29.5477 10.0025C29.5477 10.0025 29.5305 10.381 29.1692 10.1918ZM27.8582 10.1044C27.841 10.3109 27.6174 10.2249 27.6174 10.2249C27.5486 9.77756 26.9636 9.65713 26.9636 9.65713C26.3443 9.69153 26.3443 10.1388 26.3443 10.1388C26.0002 10.3625 25.9314 10.0528 25.9314 10.0528C26.1378 9.27863 26.9464 9.43347 26.9464 9.43347C27.8066 9.48508 27.8582 10.1044 27.8582 10.1044ZM30.3857 13.0169C30.1792 13.1545 29.9384 13.3437 29.8179 13.5674C29.5255 14.0491 29.1814 14.548 28.6824 14.8405C28.4244 14.9953 28.1319 15.0642 27.8394 15.047C27.547 15.047 27.1857 14.9953 26.9448 14.8405C26.7039 14.7201 26.5319 14.4964 26.4459 14.2384C26.3771 13.9631 26.4459 13.6878 26.4459 13.4125C26.4459 13.1889 26.4975 12.8792 26.3943 12.69C26.3599 12.6212 26.3599 12.6384 26.291 12.5867C26.2566 12.5523 26.2222 12.4835 26.2394 12.3975C26.2566 12.3803 26.2738 12.3287 26.291 12.3287C26.4631 12.2255 26.7039 12.3115 26.876 12.3975C27.048 12.5179 27.2373 12.6039 27.4093 12.69C27.7706 12.862 28.1491 12.9824 28.5448 12.9824C28.7685 12.9824 28.9921 12.9996 29.1986 12.9652C29.3706 12.948 29.5427 12.9308 29.7147 12.9136C29.9384 12.8964 30.1448 12.8448 30.3341 12.7416C30.4373 12.69 30.5233 12.6556 30.6093 12.6039C30.6953 12.5523 30.7814 12.4663 30.8674 12.4147C30.9018 12.3975 31.005 12.3287 31.0566 12.3287C31.1082 12.3459 31.1771 12.5007 31.1599 12.5695C31.0394 12.6039 30.9362 12.69 30.8158 12.7416C30.6609 12.8276 30.5233 12.9308 30.3857 13.0169ZM41.2307 14.523C41.2307 14.523 40.1297 15.6069 38.6673 14.9187L38.1684 14.609C38.1684 14.609 29.2737 18.2908 29.1705 18.5316C29.1705 18.5316 28.4823 18.8929 27.9662 19.8391C27.9662 19.8391 26.177 23.0219 25.2479 23.865C25.2479 23.865 24.6458 24.5875 24.2157 24.7596L24.3189 25.0176C24.9038 25.0865 25.3512 24.9316 25.3512 24.9316C27.0028 24.1402 27.2436 24.7596 27.2436 24.7596C27.8458 25.1897 27.6049 26.4284 27.6049 26.4284C32.2329 30.8843 27.2436 35.2542 27.2436 35.2542C26.4694 35.5983 26.0909 35.2542 26.0909 35.2542C25.9533 35.0477 27.2436 33.9467 27.2436 33.9467C29.6006 31.1252 27.5189 28.0628 27.5189 28.0628C24.0436 24.3123 20.5512 27.1166 20.5512 27.1166C18.9856 28.8714 19.2092 30.7811 19.2092 30.7811C18.9339 31.3316 18.4866 31.0908 18.4866 31.0908C17.8673 30.3682 18.4866 28.4585 18.4866 28.4585C19.3985 26.3424 21.3253 25.4822 21.3253 25.4822L21.6178 25.2413C21.9619 23.6413 21.377 21.6972 21.377 21.6972C19.7942 17.9123 17.1103 17.2585 16.1641 17.1553C15.9576 17.1381 15.8372 17.1381 15.8372 17.1381C11.863 16.7596 10.0221 20.2176 10.0221 20.2176C8.95545 21.1639 9.02427 23.3316 9.02427 23.3316C11.6565 23.9338 12.2931 25.5682 12.2931 25.5682C12.4823 26.2391 11.6909 26.0327 11.6909 26.0327C9.26513 24.0542 8.04363 23.9682 8.04363 23.9682C5.56621 23.5209 3.89739 25.1037 3.89739 25.1037C2.88233 25.7918 1.98771 27.3058 1.98771 27.3058C0.559754 29.852 1.45438 32.2779 1.45438 32.2779C1.9533 34.7553 4.89524 36.3897 4.89524 36.3897C6.28879 37.1123 7.78556 36.8886 7.78556 36.8886C9.00707 36.6133 8.7318 37.2671 8.7318 37.2671C8.38771 37.7832 7.9232 37.7832 7.9232 37.7832C5.29094 37.9553 4.10384 37.0779 4.10384 37.0779C-1.76283 33.3789 0.886636 27.323 0.886636 27.323C3.63932 21.9553 8.09524 23.0908 8.09524 23.0908C8.18126 21.4736 9.50599 19.237 9.50599 19.237C11.4673 16.794 13.6522 16.2607 14.977 16.1918C14.977 16.1918 14.9426 14.4542 15.4759 12.9918C15.4759 12.9918 15.7512 12.2348 16.7146 10.7725C16.8694 10.5488 17.3512 9.92947 17.506 9.36173C17.506 9.36173 18.3318 6.78108 15.3899 6.36818C15.3899 6.36818 14.4608 6.21334 13.8587 6.69506C13.463 7.00474 13.1017 7.19399 12.8264 7.2628C12.8264 7.2628 11.4329 7.74452 11.4845 6.8671C11.4845 6.8671 11.2264 5.54237 14.3748 5.18108C14.3748 5.18108 18.2114 4.52732 18.6587 7.57248C18.6587 7.57248 19.278 9.43054 17.0071 12.2348C17.0071 12.2348 15.7684 14.1445 16.0436 16.2434C16.1296 16.2607 16.1641 16.2607 16.1641 16.2607C20.1555 16.966 21.6866 20.0628 21.6866 20.0628L21.7038 20.0972C22.2544 19.8908 23.5447 19.2886 23.8028 17.9811L20.8952 17.7746C20.8952 17.7746 20.1038 17.4994 19.6909 16.1574C19.6909 16.1574 17.9361 15.2112 18.0565 13.852C18.0565 13.852 18.3146 12.1488 19.777 11.908C19.777 11.908 21.2909 11.5295 21.6006 13.9553C21.6006 13.9553 22.3232 16.0198 20.9296 16.1574C20.9296 16.1574 20.62 16.8284 21.721 16.8456C21.721 16.8456 23.0458 17.2413 23.992 16.4671C23.992 16.4671 24.6286 15.865 25.3856 15.9854C25.3856 15.9854 25.5576 15.6929 25.2307 15.5209C25.2307 15.5209 23.3382 13.9037 23.0114 11.6155C23.0114 11.6155 21.463 11.3918 21.2565 10.2908C21.2565 10.2908 20.8952 8.58753 22.306 8.24345C22.306 8.24345 23.2006 8.037 23.6651 8.24345C23.6651 8.24345 24.8178 5.12947 28.0866 4.57893C28.0866 4.57893 30.7877 3.94237 31.7512 5.98969C31.7512 5.98969 32.1469 7.10796 31.9404 8.037C31.9404 8.037 31.7167 9.06925 31.9576 9.32732C31.9576 9.32732 32.8178 9.12087 33.1963 9.68861C33.5576 10.2564 33.7124 11.4779 32.9899 11.7531C32.9899 11.7531 33.1963 12.7338 32.4737 13.3875C32.4737 13.3875 30.1684 14.7295 29.4974 15.865C29.4974 15.865 29.3081 16.123 29.2049 16.209C28.9469 16.4327 28.6372 16.6047 28.3103 16.708C28.3103 16.708 28.035 16.8284 27.7253 16.6736C27.7253 16.6736 27.6393 17.1209 28.1555 17.2069C28.1555 17.2069 29.1189 17.0693 30.1856 16.7424L37.8243 14.0069C37.8243 14.0069 37.4802 13.0607 37.7555 12.5961C37.7555 12.5961 37.9103 12.3381 38.0479 12.2865C38.3232 12.1832 38.6329 11.6843 38.6501 11.2886C38.6501 11.2886 38.5813 10.2908 39.2866 10.2564C39.2866 10.2564 39.9748 10.2047 39.9232 11.0477L39.8716 11.5983C39.8716 11.5983 40.921 11.2026 41.2651 11.9252C41.2651 11.9252 41.9877 13.3531 41.2307 14.523ZM31.8458 10.3964C32.1555 10.6028 32.448 10.9469 32.448 10.9469C32.5856 11.0846 32.7921 10.9469 32.7921 10.9469C33.0846 10.534 32.5856 10.0351 32.5856 10.0351C32.2415 9.69102 31.7426 10.0351 31.7426 10.0351C31.6394 10.2416 31.8458 10.3964 31.8458 10.3964ZM22.6251 8.9758C21.7133 9.14784 21.9025 10.1801 21.9025 10.1801C21.9713 10.9027 22.7283 11.0059 22.7283 11.0059C22.7455 9.95645 23.21 9.25107 23.2272 9.23387C23.0896 8.85537 22.6251 8.9758 22.6251 8.9758ZM20.163 12.5626C20.163 12.5626 19.6125 12.425 19.1996 12.8895C19.1996 12.8895 18.4426 13.6637 18.7006 14.5927C18.7006 14.5927 19.1307 15.6078 20.2834 15.8315C20.2834 15.8315 20.92 16.0207 21.2985 15.0401C21.2985 15.0401 21.3845 14.7476 21.1436 14.0422C21.1436 14.0422 20.92 12.8895 20.163 12.5626ZM39.5746 12.0048C39.781 11.6091 39.6606 10.9554 39.6606 10.9554C39.5746 10.25 38.9896 10.6629 38.9896 10.6629C38.6455 10.921 38.8176 11.6779 38.8176 11.6779C38.8004 12.1597 38.1638 12.3833 38.1638 12.3833C37.6993 12.865 38.0434 13.4844 38.0434 13.4844C38.2154 13.6736 38.3187 14.0005 38.3187 14.0005C38.3359 14.7747 39.4025 14.7231 39.4025 14.7231C40.5896 14.7747 41.0025 14.0349 41.0025 14.0349C41.3638 13.4328 41.2262 12.2285 40.8305 12.0048C40.4348 11.7812 39.5746 12.0048 39.5746 12.0048ZM23.6277 23.954C26.0019 22.9905 27.0341 19.7733 27.0341 19.7733C27.6879 18.1561 26.6729 17.9153 26.6729 17.9153C25.9675 17.726 25.4686 18.4314 25.4686 18.4314C23.903 20.3239 22.5954 21.0465 22.2514 21.2013L23.6277 23.954ZM24.531 12.3659C24.1181 14.4132 26.4406 15.824 26.4406 15.824C28.2127 16.9938 29.2965 15.4627 29.2965 15.4627C29.7611 14.4132 32.2041 12.6756 32.2041 12.6756C33.0299 11.867 32.2041 10.9551 32.2041 10.9551C31.3439 10.3358 31.2062 9.26912 31.2062 9.26912C31.1374 8.35729 31.275 7.25621 31.275 7.25621C30.8277 6.43041 29.6234 7.1874 29.6234 7.1874C27.3869 5.03686 25.2535 7.77234 25.2535 7.77234C23.9288 9.45836 25.3912 11.8154 25.3912 11.8154C24.8062 11.953 24.531 12.3659 24.531 12.3659Z" fill="blue"/>
</g>
</svg>
