<svg width="25" height="25" viewBox="0 0 25 25" fill="none" xmlns="http://www.w3.org/2000/svg">
<g clip-path="url(#clip0_48_9)">
<path d="M2.25342 9.42064C2.25289 8.63285 2.40777 7.85268 2.70919 7.12483C3.0106 6.39697 3.45263 5.73573 4.00997 5.17895C4.5673 4.62217 5.22899 4.1808 5.95715 3.88011C6.68531 3.57943 7.46562 3.42533 8.25342 3.42664H16.2534C19.5664 3.42664 22.2534 6.12164 22.2534 9.42064V21.4266H8.25342C4.94042 21.4266 2.25342 18.7316 2.25342 15.4326V9.42064ZM14.2534 11.4266V13.4266H16.2534V11.4266H14.2534ZM8.25342 11.4266V13.4266H10.2534V11.4266H8.25342Z" fill="#fff"/>
</g>
<defs>
<clipPath id="clip0_48_9">
<rect width="24" height="24" fill="white" transform="translate(0.253418 0.426636)"/>
</clipPath>
</defs>
</svg>
