<?xml version="1.0" encoding="UTF-8"?>
<!DOCTYPE svg PUBLIC "-//W3C//DTD SVG 1.1//EN" "http://www.w3.org/Graphics/SVG/1.1/DTD/svg11.dtd">
<!-- Creator: CorelDRAW 2020 (64-Bit) -->
<svg xmlns="http://www.w3.org/2000/svg" xml:space="preserve" width="7.98752in" height="5.2182in" version="1.1" style="shape-rendering:geometricPrecision; text-rendering:geometricPrecision; image-rendering:optimizeQuality; fill-rule:evenodd; clip-rule:evenodd"
viewBox="0 0 7987.51 5218.19"
 xmlns:xlink="http://www.w3.org/1999/xlink"
 xmlns:xodm="http://www.corel.com/coreldraw/odm/2003">
 <defs>
  <style type="text/css">
   <![CDATA[
    .fil1 {fill:#2F2E41;fill-rule:nonzero}
    .fil4 {fill:#3F3D56;fill-rule:nonzero}
    .fil6 {fill:#9F616A;fill-rule:nonzero}
    .fil8 {fill:#A0616A;fill-rule:nonzero}
    .fil7 {fill:#CACACA;fill-rule:nonzero}
    .fil3 {fill:#DCEDF5;fill-rule:nonzero}
    .fil5 {fill:#E5E5E5;fill-rule:nonzero}
    .fil0 {fill:#FFB7B7;fill-rule:nonzero}
    .fil2 {fill:#FFB8B8;fill-rule:nonzero}
   ]]>
  </style>
 </defs>
 <g id="Layer_x0020_1">
  <metadata id="CorelCorpID_0Corel-Layer"/>
  <polygon class="fil0" points="3276.81,4605.21 3428.44,4605.21 3500.57,4020.36 3276.79,4020.37 "/>
  <path class="fil1" d="M3238.14 4555.7l298.61 -0.01 0.01 0c105.08,-0.01 190.3,85.19 190.3,190.28l0 6.19 -488.91 0.02 -0.01 -196.47z"/>
  <polygon class="fil0" points="2455.86,4605.21 2607.49,4605.21 2679.61,4020.36 2455.83,4020.37 "/>
  <path class="fil1" d="M2417.18 4555.7l298.61 -0.01 0.01 0c105.07,-0.01 190.3,85.19 190.3,190.28l0 6.19 -488.91 0.02 -0.01 -196.47z"/>
  <polygon class="fil1" points="2394.08,1954.56 2394.08,3498.73 2433.18,4495.61 2755.7,4495.61 2863.2,2619.14 3078.21,3391.23 3215.04,4476.06 3605.97,4456.52 3342.09,1954.56 "/>
  <circle class="fil2" cx="2769" cy="332.2" r="234.56"/>
  <polygon class="fil3" points="2671.54,627.86 2609.09,693.81 2550.46,2013.21 3244.35,1993.65 3078.21,840.41 2931.61,699.92 2857.23,627.86 "/>
  <path class="fil4" d="M2560.23 772l52.67 -85.49 15.74 183.22c0,0 127.05,410.48 117.28,772.09 -9.77,361.61 48.87,1211.89 -29.32,1221.66 -78.19,9.77 -410.48,29.32 -410.48,-39.09 0,-68.41 -19.55,-1886.24 -19.55,-1886.24l273.65 -166.14z"/>
  <path class="fil4" d="M2915.87 686.51l133.02 105.03 293.2 107.51c0,0 0,1250.98 58.64,1544.18 58.64,293.2 166.15,322.52 29.32,332.29 -136.83,9.77 -127.05,-39.09 -127.05,-39.09 0,0 97.73,-488.66 -29.32,-586.4 -127.05,-97.74 -371.39,-664.58 -351.84,-977.33 19.55,-312.74 -25.51,-486.19 -5.96,-486.19z"/>
  <path class="fil1" d="M2547.1 405.58c0,0 19.93,-35 15.3,-151.92 -4.63,-116.92 173.41,-50.79 322.17,-61.94 148.77,-11.15 117.28,195.2 117.28,195.2 0,0 10.73,-12.27 33.71,-111.86 22.98,-99.59 -29.2,-198.83 -29.2,-198.83 -15.37,-104.65 -98.18,-71.11 -98.18,-71.11 39.88,15.52 32.22,48.72 32.22,48.72 -33.76,-59.19 -116.57,-25.65 -116.57,-25.65 -110.45,-69.31 -222.39,21.96 -222.39,21.96 -133.43,30.28 -55.18,136.39 -55.18,136.39 -134.18,67.81 0.83,219.04 0.83,219.04z"/>
  <path class="fil0" d="M2306.45 2683.06c17.39,-18.38 27.07,-42.72 27.07,-68.01 0,-33.31 -16.78,-64.41 -44.62,-82.69l42.25 -222.12 -128.72 -58.6 -55.26 314.52c-8.44,14.94 -12.9,31.83 -12.9,49 0,54.93 44.55,99.48 99.48,99.48 27.56,0 53.9,-11.44 72.7,-31.58l-0 0.01z"/>
  <path class="fil4" d="M2335.44 938.14l-25.95 -13.91c0,0 -140.2,53 -130.42,92.1 9.78,39.09 -78.19,1407.35 -48.87,1456.22 29.32,48.87 263.88,9.77 263.88,9.77l-58.64 -1544.17z"/>
  <path class="fil0" d="M3451.14 2590.94c-23.49,-18.76 -37.17,-47.23 -37.17,-77.3 0,-28.48 12.3,-55.61 33.7,-74.39l-72.58 -214.14 119.37 -75.85 98.25 303.84c13.3,17.36 20.52,38.64 20.52,60.51 0,54.93 -44.55,99.48 -99.48,99.48 -22.78,0 -44.9,-7.83 -62.61,-22.16z"/>
  <path class="fil4" d="M3336.58 2404.25c0,0 237.71,6.26 259.99,-46.19 22.28,-52.45 -254.15,-1395.38 -249.88,-1435.45 4.27,-40.07 -141.91,-73.17 -141.91,-73.17l-23.78 17.37 155.58 1537.44z"/>
  <path class="fil0" d="M4387.2 2464.68l-147.17 -721.14 -64.65 -532.63 -143.22 92.65 19.78 586.96 228.6 608.15c-6,11.41 -9.14,24.14 -9.14,37.04 0,44 35.69,79.68 79.69,79.68 44,0 79.69,-35.68 79.69,-79.68 0,-29.99 -16.85,-57.46 -43.58,-71.04l0 0z"/>
  <path class="fil0" d="M3010.74 2520.44l40.74 -734.87 -13.49 -536.37 189.35 70.84 31.61 583.6 -137.73 634.92c9.91,13.61 15.27,30.06 15.27,46.91 0,44 -35.69,79.68 -79.69,79.68 -44,0 -79.69,-35.69 -79.69,-79.68 0,-25.85 12.54,-50.1 33.63,-65.04l0 0.01z"/>
  <polygon class="fil0" points="3407.3,4656.97 3504.05,4656.97 3550.08,4283.79 3407.29,4283.8 "/>
  <path class="fil1" d="M3382.62 4625.39l190.54 -0.01 0.01 0c67.05,-0 121.43,54.36 121.43,121.41l0 3.94 -311.96 0.01 -0.01 -125.36z"/>
  <polygon class="fil0" points="3773.76,4614.16 3869.37,4628.95 3971.92,4267.19 3830.8,4245.37 "/>
  <path class="fil1" d="M3754.2 4579.17l188.3 29.13 0.01 0c59.19,9.15 102.86,60.11 102.86,120 0,6.21 -0.47,12.43 -1.42,18.56l-0.6 3.9 -308.3 -47.69 19.16 -123.9z"/>
  <path class="fil1" d="M3378.88 4545.55l-0.5 -2.7 -350.26 -1893.71c-7.65,-42.32 -11.67,-85.56 -11.67,-128.7 0,-110.57 25.68,-219.65 74.85,-318.6l212 -423.99 632.57 85.7 74.65 539.8 266.04 1029.75 -0.26 0.84 -340.82 1082.67 -223.39 14.69 197.88 -966.47 -362.33 -822.98 25.56 1788.96 -194.31 14.72z"/>
  <path class="fil4" d="M3950.63 1932.6l-4.17 -6.54c-0.75,-1.18 -77.59,-116.94 -286.68,-39.65 -213.45,78.92 -378.84,-73.51 -380.49,-75.06l-0.82 -0.77 -48.34 -430.85 -57.07 -349.77 181.65 -31.87 89.31 -53.58 355.13 -6.32 93.45 73.5 153.43 16.72 14.05 318.7 -0.06 0.35 -109.39 585.15z"/>
  <path class="fil5" d="M4001.53 1377.94l0 -272.9 43.15 -78.74 1.76 -0.06c33.94,1.27 66.09,15.86 89.37,40.6 43.4,44.09 63.06,117.56 58.43,218.35l-0.09 1.84 -192.62 90.9z"/>
  <path class="fil5" d="M3249.5 1348.27l-219.91 -26.39 -0.17 -2.53c-7.5,-109.66 11.64,-191.06 56.89,-241.94 22.7,-27.2 54.94,-44.76 90.11,-49.06l1.27 -0.06 59.53 54.12 12.29 265.87z"/>
  <path class="fil1" d="M3886.08 828.22l-578.67 0c-24.78,-0.02 -44.87,-20.12 -44.9,-44.9l0 -209.52c0,-0.15 0,-0.4 0,-0.56 0,-184.56 149.67,-334.22 334.23,-334.22 184.56,0 334.23,149.67 334.23,334.22 0,0.16 0,0.41 0,0.57l0 209.52c-0.02,24.77 -20.12,44.87 -44.9,44.89z"/>
  <circle class="fil0" cx="3610.19" cy="581.12" r="245.04"/>
  <path class="fil1" d="M3843.1 588.78l-323.52 0c-12.57,-0.02 -23.18,-9.39 -24.74,-21.86l-4.19 -33.51c-0.94,-7.48 -7.31,-13.11 -14.85,-13.11 -5.81,0 -11.1,3.37 -13.56,8.64l-21.21 45.44c-4.11,8.76 -12.91,14.37 -22.59,14.39l-49.15 0c0,0 -0,0 -0,0 -13.77,0 -24.94,-11.17 -24.94,-24.94 0,-0.8 0.04,-1.59 0.11,-2.38l19.38 -202.39c0.83,-8.8 6.26,-16.53 14.25,-20.31 148.16,-69.17 298.41,-69.08 446.57,0.26 7.63,3.59 12.94,10.79 14.11,19.15l29.03 202.13c0.17,1.17 0.25,2.36 0.25,3.55 0,13.77 -11.17,24.94 -24.94,24.94 0,0 -0.01,0 -0.01,0z"/>
  <path class="fil6" d="M3976.22 2487.6c35.74,-12.64 59.63,-46.46 59.63,-84.37 0,-15.49 -4.03,-30.76 -11.68,-44.22l209.74 -239.1 -163.73 -22.59 -174.07 230.52c-25.24,16.65 -40.45,44.89 -40.45,75.13 0,49.69 40.3,89.98 89.98,89.98 10.41,0 20.78,-1.81 30.57,-5.35l-0 0z"/>
  <polygon class="fil6" points="4229.16,4606.6 4082.88,4606.59 4013.29,4042.36 4229.19,4042.37 "/>
  <path class="fil1" d="M4266.47 4748.4l-471.67 -0.02 0 -5.96c0,-101.4 82.22,-183.59 183.6,-183.59l0 0 288.08 0.01 -0.01 189.56z"/>
  <polygon class="fil6" points="4994.9,4484.18 4855.19,4527.56 4621.42,4009.34 4827.61,3945.33 "/>
  <path class="fil1" d="M5072.58 4608.54l-450.46 139.86 -1.77 -5.7c-5.46,-17.64 -8.26,-35.99 -8.26,-54.44 0,-80.4 52.38,-151.5 129.15,-175.33l0.01 -0 275.13 -85.42 56.2 181.03z"/>
  <path class="fil6" d="M4299.33 2514.21c27.89,-15.92 45.13,-45.61 45.13,-77.73 0,-20.94 -7.37,-41.24 -20.77,-57.32l163.97 -272.53 -165.14 6.83 -130.39 257.75c-17.8,16.96 -27.9,40.53 -27.9,65.14 0,49.69 40.3,89.98 89.98,89.98 15.83,0 31.42,-4.2 45.11,-12.13l0.01 0.01z"/>
  <path class="fil7" d="M7977.1 4770.83l-6364.58 0c-5.75,-0 -10.41,-4.67 -10.41,-10.42 0,-5.75 4.67,-10.42 10.42,-10.42l6364.58 0.01c5.75,-0.01 10.41,4.66 10.41,10.41 0,5.75 -4.67,10.42 -10.42,10.42l0 0z"/>
  <path class="fil4" d="M167.78 435.1l0 3.59 -98.21 -0c-31.39,0 -56.84,25.46 -56.84,56.85l0 208.08c0,31.39 25.45,56.84 56.84,56.84l538.8 0c31.39,0 56.85,-25.45 56.85,-56.84l-0 -208.08c0,-31.39 -25.45,-56.84 -56.84,-56.84l-370.69 -0 0 -3.59 -69.91 0z"/>
  <path class="fil1" d="M1595.92 1299.35c2.28,307.08 -193.93,260.64 -433.15,260.64 -239.22,0 -412.3,45.74 -433.15,-260.64 -33.14,-486.85 94.73,-851.43 433.15,-851.43 350.08,-0 429.54,364.58 433.15,851.43z"/>
  <path class="fil8" d="M285.74 648c8.12,16.42 12.36,34.55 12.36,52.87 0,53.09 -35.1,99.81 -86.07,114.6l-21.83 423.52 -177.48 -130.63 47.94 -382.15c-1.84,-8.46 -2.79,-17.1 -2.79,-25.76 0,-66.25 53.73,-119.98 119.98,-119.98 45.92,0 87.83,26.22 107.9,67.51l0 0.01z"/>
  <path class="fil8" d="M1886.19 3041.42c12.93,-19.52 19.83,-42.46 19.83,-65.88 0,-47.58 -28.29,-90.65 -71.96,-109.53l31.46 -422.89 -192.46 107.33 -0.37 385.14c-4.59,12.89 -6.94,26.53 -6.94,40.24 0,66.25 53.73,119.98 119.98,119.98 40.52,0 78.33,-20.48 100.47,-54.4l0 0.01z"/>
  <polygon class="fil8" points="999.84,5077.17 1145.33,5077.16 1214.54,4515.99 999.81,4516 "/>
  <path class="fil1" d="M962.73 5029.67l286.52 -0.01 0.01 0c0.01,-0.01 0.01,-0.01 0.01,-0.01 100.83,0 182.59,81.77 182.59,182.59 0,0 0,0 0,0l0 5.93 -469.12 0.02 -0.01 -188.52z"/>
  <polygon class="fil8" points="1925.48,5077.17 2070.97,5077.16 2140.19,4515.99 1925.46,4516 "/>
  <path class="fil1" d="M1888.37 5029.67l286.52 -0.01 0.01 0c0.01,-0.01 0.01,-0.01 0.01,-0.01 100.83,0 182.59,81.77 182.59,182.59 0,0 0,0 0,0l0 5.93 -469.12 0.02 -0.01 -188.52z"/>
  <path class="fil5" d="M1842.44 2808.41l-6.32 -1.15c-52.99,-9.59 -106.63,-19.3 -153.79,-29.44l-4.67 -1.01 -0.02 -4.78c-0.81,-215.11 -1.62,-430.17 -2.81,-647.19 -93.75,-188.95 -142.52,-397.04 -142.52,-607.98 0,-41.75 2,-83.84 5.68,-125.26l0.27 -2.67 2.19 -1.56c23.62,-16.39 51.63,-25.17 80.31,-25.17 21.31,0 42.35,4.86 61.52,14.17 44.61,24.38 74.68,68.85 80.68,119.32 42.89,233.73 87.28,475.77 136.8,714.27l0.18 0.87 -0.08 0.89c-18.35,194.51 -37.31,395.65 -56.78,590.27l-0.63 6.39z"/>
  <path class="fil1" d="M1747.6 4877.17l-1.16 -5.47c-68.06,-321.94 -133.76,-584.11 -197.3,-837.65 -76.14,-303.84 -148.3,-591.76 -221.15,-964.35 10,469.85 33.24,807.42 59.95,1195.44 12.06,175.2 24.53,356.37 37.19,567.88l0.39 6.46 -6.46 -0.16c-227.7,-5.83 -460.99,-19.9 -686.61,-33.49l-5.97 -0.36 0.41 -5.97c42.71,-629.6 56.1,-1038.72 65.87,-1337.45 20.62,-630.25 23.79,-727.12 258.55,-1260.51 8.9,-20.24 61.99,-80.02 120.36,-70.91l461.9 71.89 0.81 4.07c13.04,65.65 77.72,264.87 167.24,540.59 191.37,589.42 480.57,1480.18 570.91,2011.15l1.02 6.02 -6.04 0.86c-131.22,18.65 -225.67,38.07 -317,56.84 -86.41,17.78 -175.76,36.15 -297.39,54.3l-5.52 0.83z"/>
  <path class="fil3" d="M1346.15 2369.12c-123.28,0.01 -245.13,-42.76 -332.49,-126.06 -27.68,-16.11 -45.85,-44.72 -48.64,-76.63 -0.78,-5.08 -1.19,-10.22 -1.19,-15.36 0,-24.18 8.76,-47.55 24.67,-65.76 -85.64,-103.67 -174.07,-210.81 -258.71,-319.91l-2.34 -3.01 2.71 -5.17c55.38,-105.81 112.64,-215.21 167.64,-323.31 7.8,-19.19 25.48,-32.58 46.07,-34.88 4.01,-0.75 8.11,-1.14 12.2,-1.14 13.83,0 27.31,4.37 38.51,12.48l0.11 -2.63c2.3,-54.72 4.6,-109.45 6.96,-161.32l0.25 -5.54 5.55 -0.13c105.74,-2.33 215.07,-4.75 322.48,-11.11l4.09 -0.24 53.27 118.82c13.92,-1.35 28.07,-2.04 42.11,-2.04 72.55,0 144.15,18.19 207.87,52.76l3.52 1.88 -0.41 3.96c-8.49,83.51 -13.22,168.28 -13.22,252.45 0,120.8 9.16,241.6 27.17,360.92 -1.66,92.7 -3.45,187.45 -22.26,262.98l-0.55 2.2 -1.88 1.28c-83.14,55.06 -180.64,84.51 -280.3,84.51 -1.05,0 -2.1,0 -3.15,0l-0.03 -0.01z"/>
  <path class="fil5" d="M892.37 1853.61l-7.09 -3.26c-82.83,-41.56 -165.93,-87.66 -246.29,-132.24l-11.1 -2.17c-211.59,-42.47 -328.14,-65.86 -519.02,-177.8l-1.46 -0.87 -0.79 -1.51c-95.58,-182.59 -122.24,-342.19 -98.37,-588.87l0.48 -4.95 4.95 -0.39c20.69,-1.68 54.42,-2.8 87.04,-3.89 31.73,-1.06 64.54,-2.16 84.66,-3.73l4.67 -0.37 1.44 4.45c25.01,77.24 46.26,149.3 68.76,225.59 23.12,78.43 47.02,159.48 76.13,249.54 106.59,30.63 392.33,21.48 481.17,9.37 3.87,-0.28 7.79,-0.43 11.67,-0.43 50.01,0 97.13,23.54 127.14,63.54l1.65 2.06 -0.43 2.61c-19.56,119.37 -42.02,239.44 -63.74,355.56l-1.46 7.76z"/>
  <circle class="fil8" transform="matrix(0.47966 -0.877455 0.877455 0.47966 1157.44 904.384)" r="291.47"/>
  <path class="fil1" d="M824.55 887l0 0 115.28 0 50.86 -142.41 10.17 142.41 55.1 0 29.67 -83.07 5.93 83.07 409.42 0 0 0c0,-170.38 -138.17,-308.55 -308.54,-308.55l-59.34 0c-170.37,0 -308.54,138.17 -308.54,308.55l-0.01 0z"/>
 </g>
</svg>
